<svg width="150" height="44" viewBox="0 0 150 44" fill="none" xmlns="http://www.w3.org/2000/svg">
<path d="M25.4892 19.4264H48.5668V43.5824H40.1426L37.7696 38.8447C33.9332 42.0031 29.2069 43.5824 23.5908 43.5824C19.5962 43.5824 15.918 42.861 12.5563 41.4183C9.19448 39.9755 6.42596 37.714 4.25069 34.6335C2.07543 31.5141 0.987793 27.8488 0.987793 23.6376V20.3622C0.987793 14.0064 3.26194 9.09335 7.81022 5.623C12.3981 2.15265 18.212 0.41748 25.2519 0.41748C30.9076 0.41748 35.6734 1.54827 39.5493 3.80984C43.4648 6.03242 46.0356 9.15184 47.2617 13.1681L33.4388 15.8001C32.806 14.1624 31.7184 12.8561 30.1759 11.8813C28.673 10.8675 26.9328 10.3606 24.9553 10.3606C22.5032 10.3606 20.4268 11.121 18.7261 12.6417C17.065 14.1234 16.2344 16.385 16.2344 19.4264V24.6319C16.2344 27.5564 17.065 29.7984 18.7261 31.3582C20.4268 32.9179 22.5823 33.6977 25.1926 33.6977C29.0685 33.6977 31.7975 31.7871 33.3795 27.9658H25.4892V19.4264Z" fill="#F1935C"/>
<path d="M51.2065 43.5824V0.41748H65.8884L84.2864 21.075H84.4083V0.41748H98.7856V43.5824H84.5911L65.7666 22.2466H65.5838V43.5824H51.2065Z" fill="#F1935C"/>
<path d="M134.647 43.5824L133.017 37.9495H116.461L114.729 43.5824H101.433L117.072 0.41748H133.73L149.012 43.5824H134.647ZM119.517 27.7858H130.011L124.968 10.5811H124.764L119.517 27.7858Z" fill="#F1935C"/>
</svg>
